<svg width="140" height="40" viewBox="0 0 140 40" fill="none" xmlns="http://www.w3.org/2000/svg">
<path d="M7.20563 0.137468C4.34009 1.33197 1.18989 4.70233 0.194959 8.93586C-1.06508 14.2985 4.17844 16.5665 4.6085 15.8238C5.11468 14.9501 3.66895 14.6547 3.37132 11.8722C2.98674 8.27834 4.66577 4.26266 6.7791 2.50068C7.1717 2.17333 7.15308 2.62895 7.15308 3.47172C7.15308 4.9788 7.06943 18.5078 7.06943 21.3314C7.06943 25.152 6.91083 26.3584 6.62593 27.5506C6.33749 28.7587 5.87349 29.5749 6.22485 29.8894C6.61768 30.2411 8.29482 29.4045 9.26571 28.0561C10.4298 26.4391 10.8373 24.497 10.9106 22.388C10.9989 19.8456 10.9952 15.8114 10.9989 13.5103C11.0022 11.3999 11.0345 5.22009 10.9617 1.50503C10.9438 0.59379 8.40416 -0.362236 7.20563 0.137468Z" fill="#343433"/>
<path d="M108.961 18.0175C108.868 20.0037 108.426 21.5562 107.878 22.6513C106.817 24.7714 104.614 25.4296 103.678 22.3821C103.169 20.721 103.145 17.9465 103.511 15.6283C103.884 13.2667 104.926 11.4831 106.651 11.644C108.352 11.803 109.148 13.9842 108.961 18.0175ZM80.2813 30.3406C80.2582 33.6408 79.7362 36.5344 78.6169 37.3749C77.0293 38.5666 74.8954 37.6727 75.3373 35.2644C75.7282 33.1334 77.5772 30.957 80.2858 28.2979C80.2858 28.2979 80.2914 28.9043 80.2813 30.3406ZM79.8477 17.9981C79.7506 19.8072 79.2793 21.6245 78.7651 22.6513C77.7037 24.7714 75.4848 25.434 74.5653 22.3821C73.9366 20.2968 74.0872 17.598 74.3982 15.8975C74.8019 13.6911 75.7803 11.6442 77.5376 11.6442C79.2461 11.6442 80.0885 13.5094 79.8477 17.9981ZM63.2339 17.9706C63.1298 19.8864 62.7541 21.488 62.1513 22.6513C61.0607 24.7568 58.9031 25.4244 57.9515 22.3821C57.2655 20.1882 57.4991 17.197 57.7844 15.5811C58.2079 13.1832 59.2684 11.4831 60.9238 11.6442C62.6243 11.8096 63.451 13.9842 63.2339 17.9706ZM139.371 20.2084C138.955 20.2084 138.765 20.6349 138.608 21.3525C138.064 23.8482 137.492 24.4114 136.754 24.4114C135.93 24.4114 135.189 23.1759 134.999 20.7022C134.849 18.7571 134.873 15.1764 135.064 11.6145C135.104 10.8826 134.901 10.1585 132.928 9.44541C132.079 9.13869 130.845 8.68706 130.231 10.1627C128.495 14.3318 127.816 17.6416 127.656 18.986C127.648 19.0556 127.562 19.0699 127.547 18.9072C127.445 17.8304 127.218 15.8733 127.189 11.762C127.184 10.9598 127.013 10.2769 126.123 9.71789C125.546 9.35513 123.793 8.71356 123.161 9.47683C122.614 10.1011 121.981 11.781 121.323 13.7723C120.788 15.3907 120.415 16.4856 120.415 16.4856C120.415 16.4856 120.422 12.1186 120.429 10.4622C120.432 9.83725 120.001 9.62902 119.871 9.59126C119.286 9.42266 118.134 9.14057 117.645 9.14057C117.042 9.14057 116.894 9.47589 116.894 9.96481C116.894 10.0291 116.799 15.7143 116.799 19.6899C116.799 19.8627 116.799 20.051 116.8 20.2513C116.466 22.0785 115.384 24.5589 114.208 24.5589C113.029 24.5589 112.473 23.522 112.473 18.7824C112.473 16.0178 112.557 14.8153 112.598 12.8155C112.622 11.6637 112.668 10.7792 112.665 10.5785C112.656 9.96294 111.587 9.6527 111.089 9.53803C110.589 9.42266 110.154 9.37764 109.815 9.39687C109.335 9.42407 108.995 9.73735 108.995 10.1686C108.995 10.4 108.997 10.8395 108.997 10.8395C108.379 9.87219 107.384 9.19896 106.722 9.00386C104.939 8.47696 103.079 8.94407 101.675 10.8979C100.56 12.4504 99.8876 14.2089 99.623 16.7353C99.4295 18.5824 99.4927 20.4553 99.8365 22.0393C99.421 23.8266 98.6497 24.5589 97.8051 24.5589C96.579 24.5589 95.6902 22.5676 95.7934 19.1234C95.8615 16.8582 96.317 15.2683 96.8149 12.9684C97.0273 11.988 96.8548 11.4747 96.4221 10.9827C96.0253 10.5316 95.1797 10.3011 93.9642 10.5846C93.0985 10.7867 91.8606 11.0041 90.728 11.171C90.728 11.171 90.7964 10.8997 90.8524 10.4214C91.147 7.91277 88.4075 8.11631 87.5335 8.91757C87.0118 9.39593 86.6566 9.96012 86.5218 10.9745C86.3081 12.5843 87.6275 13.3436 87.6275 13.3436C87.1946 15.3157 86.1335 17.8914 85.0379 19.7537C84.4512 20.7515 84.0022 21.4908 83.4228 22.2768C83.4207 21.9842 83.419 21.6913 83.4181 21.4001C83.4049 17.2545 83.4603 13.992 83.4848 12.8158C83.5086 11.6639 83.555 10.8029 83.5524 10.6022C83.5458 10.1522 83.2816 9.98193 82.7321 9.76667C82.2462 9.57626 81.6716 9.44447 81.0757 9.39851C80.3235 9.34036 79.8703 9.73712 79.8821 10.2066C79.8844 10.2952 79.8845 10.8395 79.8845 10.8395C79.2659 9.87219 78.2709 9.19896 77.609 9.00386C75.826 8.47719 73.9656 8.94407 72.5622 10.8979C71.4471 12.4504 70.7168 14.6291 70.5099 16.7161C70.3172 18.6612 70.3528 20.3139 70.6155 21.7066C70.332 23.1008 69.5169 24.5589 68.5953 24.5589C67.417 24.5589 66.7466 23.522 66.7466 18.7824C66.7466 16.0178 66.83 14.8153 66.871 12.8158C66.8948 11.6639 66.9407 10.7792 66.9382 10.5787C66.9294 9.96317 65.8598 9.65294 65.3621 9.53803C64.8413 9.41821 64.3917 9.37413 64.0465 9.39968C63.5909 9.43322 63.2707 9.83912 63.2707 10.1419V10.8395C62.6521 9.87219 61.6572 9.19896 60.9952 9.00386C59.2123 8.47719 57.3622 8.95157 55.9485 10.8979C55.0266 12.1669 54.2803 13.5739 53.8962 16.6884C53.7852 17.5884 53.7362 18.4314 53.7425 19.2191C53.3749 21.4563 51.7513 24.0346 50.4231 24.0346C49.6459 24.0346 48.9058 22.5345 48.9058 19.3377C48.9058 15.0793 49.1706 9.01652 49.2154 8.43217C49.2154 8.43217 50.8935 8.40379 51.2185 8.40004C52.0555 8.3909 52.8136 8.41059 53.9285 8.35385C54.4877 8.32547 55.0264 6.32854 54.4493 6.08138C54.1877 5.96953 52.339 5.87151 51.6061 5.85603C50.9899 5.8422 49.2743 5.71581 49.2743 5.71581C49.2743 5.71581 49.4282 1.69145 49.464 1.26631C49.4944 0.911996 49.0337 0.729561 48.7695 0.61888C48.1272 0.348511 47.5524 0.219071 46.8711 0.0793132C45.9299 -0.113909 45.5029 0.0750923 45.4195 0.865566C45.2939 2.06523 45.2289 5.5791 45.2289 5.5791C44.5382 5.5791 42.1788 5.44473 41.4879 5.44473C40.846 5.44473 40.1531 8.19181 41.0406 8.22558C42.0617 8.26497 43.8411 8.29921 45.0208 8.33439C45.0208 8.33439 44.9682 14.4973 44.9682 16.4002C44.9682 16.6026 44.9692 16.7975 44.9703 16.9867C44.3211 20.3538 42.0343 22.1727 42.0343 22.1727C42.5254 19.945 41.5223 18.2722 39.7153 16.8561C39.0496 16.3343 37.7353 15.3464 36.2649 14.2638C36.2649 14.2638 37.1165 13.4287 37.8718 11.7481C38.4069 10.5576 38.43 9.19568 37.1165 8.89529C34.9461 8.39864 33.1566 9.98474 32.6228 11.678C32.2093 12.99 32.4298 13.9631 33.24 14.9743C33.2992 15.0481 33.3633 15.1236 33.4295 15.1996C32.9396 16.1392 32.2665 17.4043 31.6965 18.3854C30.1143 21.1093 28.9191 23.2638 28.0158 23.2638C27.2938 23.2638 27.3035 21.0762 27.3035 19.0282C27.3035 17.2627 27.4345 14.6082 27.5391 11.86C27.5737 10.9511 27.117 10.4333 26.3514 9.96434C25.8862 9.67943 24.8934 9.11923 24.3184 9.11923C23.4578 9.11923 20.9748 9.23577 18.6286 15.9889C18.3329 16.8401 17.752 18.3911 17.752 18.3911L17.8022 10.2701C17.8022 10.0797 17.7001 9.89564 17.4668 9.76971C17.0714 9.55609 16.0154 9.11923 15.0766 9.11923C14.6293 9.11923 14.4059 9.32629 14.4059 9.73899L14.3242 22.4443C14.3242 23.4099 14.3494 24.5359 14.4453 25.0284C14.541 25.5215 14.6958 25.9227 14.8874 26.1614C15.079 26.3997 15.3005 26.5814 15.6655 26.6565C16.0053 26.7261 17.8665 26.9639 17.9631 26.2562C18.0791 25.408 18.0835 24.4907 19.0608 21.0694C20.5822 15.7429 22.5654 13.1441 23.4981 12.2211C23.6612 12.0598 23.8474 12.0502 23.8384 12.3142C23.7986 13.482 23.6586 16.4002 23.5643 18.879C23.3117 25.5133 24.5246 26.743 26.2579 26.743C27.5839 26.743 29.4531 25.4319 31.4568 22.1132C32.706 20.0449 33.9189 18.017 34.7904 16.5555C35.3977 17.115 36.0792 17.7169 36.7602 18.3601C38.3428 19.8548 38.8625 21.2751 38.5177 22.6225C38.254 23.6526 37.261 24.7142 35.4936 23.6824C34.9784 23.3813 34.7586 23.1487 34.2406 22.8094C33.9623 22.6272 33.5374 22.5725 33.2827 22.7636C32.621 23.2601 32.2425 23.8916 32.0264 24.6733C31.8162 25.434 32.5818 25.8362 33.3755 26.1879C34.0589 26.4907 35.5277 26.765 36.4645 26.7962C40.1142 26.9177 43.038 25.0427 45.0733 20.206C45.4376 24.3833 46.9882 26.7467 49.6822 26.7467C51.4833 26.7467 53.2891 24.4302 54.0788 22.1511C54.3055 23.0802 54.6411 23.888 55.0744 24.5713C57.1503 27.8442 61.1774 27.1397 63.2002 24.3605C63.8256 23.5018 63.9209 23.1932 63.9209 23.1932C64.2159 25.8174 66.3396 26.7343 67.5556 26.7343C68.9174 26.7343 70.3235 26.0937 71.309 23.8859C71.4245 24.1256 71.5506 24.3544 71.6882 24.5713C73.7641 27.8442 77.7911 27.1397 79.814 24.3605C79.9094 24.2302 79.9921 24.112 80.0645 24.0057L80.1239 25.7295C80.1239 25.7295 78.9699 26.7828 78.2615 27.4291C75.1398 30.2761 72.7684 32.4355 72.5941 34.9502C72.3721 38.1567 74.9838 39.3484 76.9628 39.5045C79.0606 39.6703 80.8603 38.5161 81.9648 36.901C82.9369 35.4792 83.5731 32.4193 83.5265 29.3972C83.5078 28.187 83.4772 26.6482 83.4532 24.9988C84.549 23.7326 85.7835 22.1319 86.9203 20.2588C88.1592 18.2173 89.4868 15.4756 90.1667 13.342C90.1667 13.342 91.3202 13.3518 92.5513 13.2716C92.945 13.2461 93.0582 13.326 92.9853 13.6133C92.8974 13.9603 91.43 19.5924 92.7692 23.3442C93.6859 25.9126 95.7524 26.739 96.9775 26.739C98.4117 26.739 99.7837 25.6613 100.519 24.0609C100.608 24.2393 100.7 24.4119 100.801 24.5713C102.877 27.8442 106.89 27.1355 108.927 24.3605C109.387 23.7344 109.648 23.1932 109.648 23.1932C110.085 25.9091 112.207 26.7481 113.423 26.7481C114.689 26.7481 115.891 26.2316 116.866 23.9356C116.907 24.9465 116.971 25.7731 117.073 26.0336C117.134 26.1931 117.494 26.3931 117.756 26.4897C118.914 26.9172 120.096 26.7151 120.533 26.6271C120.836 26.5662 121.072 26.3244 121.104 25.7002C121.189 24.0611 121.137 21.3072 121.636 19.2603C122.475 15.8255 123.257 14.4931 123.628 13.8335C123.835 13.4639 124.069 13.4029 124.078 13.7941C124.095 14.5855 124.135 16.9095 124.46 20.032C124.698 22.3284 125.017 23.6859 125.262 24.1155C125.96 25.344 126.823 25.4022 127.526 25.4022C127.973 25.4022 128.908 25.2793 128.824 24.4975C128.783 24.1164 128.855 21.7614 129.681 18.3775C130.221 16.1676 131.121 14.1711 131.445 13.4409C131.565 13.1717 131.62 13.3839 131.619 13.4252C131.55 14.9471 131.397 19.9249 132.02 22.6473C132.864 26.3354 135.308 26.7481 136.159 26.7481C137.977 26.7481 139.463 25.3724 139.964 21.7523C140.085 20.8811 139.906 20.2084 139.371 20.2084Z" fill="#343433"/>
</svg>
