<svg width="48" height="48" viewBox="0 0 48 48" fill="none" xmlns="http://www.w3.org/2000/svg">
<path d="M23.98 4C12.94 4 3.98 12.96 3.98 24C3.98 35.04 12.94 44 23.98 44C35.02 44 43.98 35.04 43.98 24C43.98 12.96 35.02 4 23.98 4V4ZM31.2 16.68C33.34 16.68 35.06 18.4 35.06 20.54C35.06 22.68 33.34 24.4 31.2 24.4C29.06 24.4 27.34 22.68 27.34 20.54C27.32 18.4 29.06 16.68 31.2 16.68V16.68ZM19.2 13.52C21.8 13.52 23.92 15.64 23.92 18.24C23.92 20.84 21.8 22.96 19.2 22.96C16.6 22.96 14.48 20.84 14.48 18.24C14.48 15.62 16.58 13.52 19.2 13.52ZM19.2 31.78V39.28C14.4 37.78 10.6 34.08 8.92 29.36C11.02 27.12 16.26 25.98 19.2 25.98C20.26 25.98 21.6 26.14 23 26.42C19.72 28.16 19.2 30.46 19.2 31.78ZM23.98 40C23.44 40 22.92 39.98 22.4 39.92V31.78C22.4 28.94 28.28 27.52 31.2 27.52C33.34 27.52 37.04 28.3 38.88 29.82C36.54 35.76 30.76 40 23.98 40V40Z" fill="black"/>
</svg>
