<svg width="186" height="47" viewBox="0 0 186 47" fill="none" xmlns="http://www.w3.org/2000/svg">
<path d="M30.936 38.064H14.168L11.48 46H0.024L16.28 1.072H28.952L45.208 46H33.624L30.936 38.064ZM28.12 29.616L22.552 13.168L17.048 29.616H28.12ZM92.3315 1.072L76.3955 46H62.6995L46.7635 1.072H58.4115L69.5475 34.992L80.7475 1.072H92.3315ZM129.226 1.072V9.84H117.322V46H106.378V9.84H94.4735V1.072H129.226ZM150.974 46.448C147.689 46.448 144.745 45.9147 142.142 44.848C139.539 43.7813 137.449 42.2027 135.87 40.112C134.334 38.0213 133.523 35.504 133.438 32.56H145.086C145.257 34.224 145.833 35.504 146.814 36.4C147.795 37.2533 149.075 37.68 150.654 37.68C152.275 37.68 153.555 37.3173 154.494 36.592C155.433 35.824 155.902 34.7787 155.902 33.456C155.902 32.3467 155.518 31.4293 154.75 30.704C154.025 29.9787 153.107 29.3813 151.998 28.912C150.931 28.4427 149.395 27.9093 147.39 27.312C144.489 26.416 142.121 25.52 140.286 24.624C138.451 23.728 136.873 22.4053 135.55 20.656C134.227 18.9067 133.566 16.624 133.566 13.808C133.566 9.62667 135.081 6.36267 138.11 4.016C141.139 1.62667 145.086 0.431999 149.95 0.431999C154.899 0.431999 158.889 1.62667 161.918 4.016C164.947 6.36267 166.569 9.648 166.782 13.872H154.942C154.857 12.4213 154.323 11.2907 153.342 10.48C152.361 9.62666 151.102 9.2 149.566 9.2C148.243 9.2 147.177 9.56266 146.366 10.288C145.555 10.9707 145.15 11.9733 145.15 13.296C145.15 14.7467 145.833 15.8773 147.198 16.688C148.563 17.4987 150.697 18.3733 153.598 19.312C156.499 20.2933 158.846 21.232 160.638 22.128C162.473 23.024 164.051 24.3253 165.374 26.032C166.697 27.7387 167.358 29.936 167.358 32.624C167.358 35.184 166.697 37.5093 165.374 39.6C164.094 41.6907 162.217 43.3547 159.742 44.592C157.267 45.8293 154.345 46.448 150.974 46.448ZM179.213 46.512C177.293 46.512 175.714 45.9573 174.477 44.848C173.282 43.696 172.685 42.288 172.685 40.624C172.685 38.9173 173.282 37.488 174.477 36.336C175.714 35.184 177.293 34.608 179.213 34.608C181.09 34.608 182.626 35.184 183.821 36.336C185.058 37.488 185.677 38.9173 185.677 40.624C185.677 42.288 185.058 43.696 183.821 44.848C182.626 45.9573 181.09 46.512 179.213 46.512Z" fill="#002211"/>
</svg>
