<svg width="65" height="53" viewBox="0 0 65 53" fill="none" xmlns="http://www.w3.org/2000/svg">
<path d="M20.4417 52.6106C44.9712 52.6106 58.3855 32.3719 58.3855 14.8216C58.3855 14.2467 58.3737 13.6745 58.3478 13.1048C60.9517 11.2301 63.2149 8.89061 65 6.2274C62.6105 7.28517 60.0391 7.99724 57.3417 8.31832C60.095 6.67406 62.2087 4.07303 63.206 0.972316C60.6293 2.49359 57.7759 3.59926 54.7378 4.1962C52.3042 1.61466 48.8396 0 45.0034 0C37.6389 0 31.6668 5.94793 31.6668 13.2796C31.6668 14.3218 31.7838 15.3356 32.0126 16.308C20.9289 15.7525 11.1008 10.4676 4.52323 2.43143C3.37794 4.39418 2.71754 6.67412 2.71754 9.10686C2.71754 13.7147 5.0719 17.7825 8.65209 20.1623C6.46415 20.0949 4.40883 19.4968 2.61241 18.5011C2.61044 18.5569 2.61044 18.6112 2.61044 18.6708C2.61044 25.1029 7.20727 30.4732 13.3093 31.6901C12.1887 31.9943 11.0097 32.1575 9.79284 32.1575C8.93485 32.1575 8.09893 32.0734 7.28644 31.918C8.98423 37.1951 13.9074 41.0353 19.7442 41.1426C15.1799 44.7055 9.43011 46.8276 3.18104 46.8276C2.10594 46.8276 1.04385 46.7667 0 46.6438C5.90205 50.4114 12.9102 52.6097 20.4424 52.6097" fill="#1DA1F2"/>
</svg>
